{
    "asset" : {
        "generator" : "Khronos glTF Blender I/O v1.1.46",
        "version" : "2.0"
    },
    "scene" : 0,
    "scenes" : [
        {
            "name" : "Scene",
            "nodes" : [
                0
            ]
        }
    ],
    "nodes" : [
        {
            "mesh" : 0,
            "name" : "model11-2.001",
            "rotation" : [
                0,
                -0.9173039197921753,
                0,
                0.3981878459453583
            ],
            "scale" : [
                3.162724018096924,
                3.162724256515503,
                3.162724018096924
            ],
            "translation" : [
                -1.120165467262268,
                0.15445448458194733,
                -0.20831504464149475
            ]
        }
    ],
    "materials" : [
        {
            "doubleSided" : true,
            "emissiveFactor" : [
                0,
                0,
                0
            ],
            "name" : "Material.003",
            "pbrMetallicRoughness" : {
                "metallicFactor" : 0,
                "roughnessFactor" : 0.5
            }
        }
    ],
    "meshes" : [
        {
            "name" : "model11-2.001",
            "primitives" : [
                {
                    "attributes" : {
                        "POSITION" : 0,
                        "NORMAL" : 1,
                        "COLOR_0" : 2
                    },
                    "indices" : 3,
                    "material" : 0
                }
            ]
        }
    ],
    "accessors" : [
        {
            "bufferView" : 0,
            "componentType" : 5126,
            "count" : 70389,
            "max" : [
                0.2247474193572998,
                0.1003255844116211,
                0.2449359893798828
            ],
            "min" : [
                -0.25597238540649414,
                -0.15885543823242188,
                -0.2808036804199219
            ],
            "type" : "VEC3"
        },
        {
            "bufferView" : 1,
            "componentType" : 5126,
            "count" : 70389,
            "type" : "VEC3"
        },
        {
            "bufferView" : 2,
            "componentType" : 5126,
            "count" : 70389,
            "type" : "VEC4"
        },
        {
            "bufferView" : 3,
            "componentType" : 5125,
            "count" : 70389,
            "type" : "SCALAR"
        }
    ],
    "bufferViews" : [
        {
            "buffer" : 0,
            "byteLength" : 844668,
            "byteOffset" : 0
        },
        {
            "buffer" : 0,
            "byteLength" : 844668,
            "byteOffset" : 844668
        },
        {
            "buffer" : 0,
            "byteLength" : 1126224,
            "byteOffset" : 1689336
        },
        {
            "buffer" : 0,
            "byteLength" : 281556,
            "byteOffset" : 2815560
        }
    ],
    "buffers" : [
        {
            "byteLength" : 3097116,
            "uri" : "data:application/octet-stream;base64,"
        }
    ]
}
