{
    "asset" : {
        "generator" : "Khronos glTF Blender I/O v1.1.46",
        "version" : "2.0"
    },
    "scene" : 0,
    "scenes" : [
        {
            "name" : "Scene",
            "nodes" : [
                0
            ]
        }
    ],
    "nodes" : [
        {
            "mesh" : 0,
            "name" : "model11-1",
            "rotation" : [
                0,
                -0.9173039197921753,
                0,
                0.3981878459453583
            ],
            "scale" : [
                3.162724018096924,
                3.162724256515503,
                3.162724018096924
            ],
            "translation" : [
                0.9226876497268677,
                0.14430418610572815,
                0.2664033770561218
            ]
        }
    ],
    "materials" : [
        {
            "doubleSided" : true,
            "emissiveFactor" : [
                0,
                0,
                0
            ],
            "name" : "Material.004",
            "pbrMetallicRoughness" : {
                "metallicFactor" : 0,
                "roughnessFactor" : 0.5
            }
        }
    ],
    "meshes" : [
        {
            "name" : "model11-1",
            "primitives" : [
                {
                    "attributes" : {
                        "POSITION" : 0,
                        "NORMAL" : 1,
                        "COLOR_0" : 2
                    },
                    "indices" : 3,
                    "material" : 0
                }
            ]
        }
    ],
    "accessors" : [
        {
            "bufferView" : 0,
            "componentType" : 5126,
            "count" : 66228,
            "max" : [
                0.3170926570892334,
                0.13888096809387207,
                0.3121471405029297
            ],
            "min" : [
                -0.27198541164398193,
                -0.15073776245117188,
                -0.33893489837646484
            ],
            "type" : "VEC3"
        },
        {
            "bufferView" : 1,
            "componentType" : 5126,
            "count" : 66228,
            "type" : "VEC3"
        },
        {
            "bufferView" : 2,
            "componentType" : 5126,
            "count" : 66228,
            "type" : "VEC4"
        },
        {
            "bufferView" : 3,
            "componentType" : 5125,
            "count" : 66228,
            "type" : "SCALAR"
        }
    ],
    "bufferViews" : [
        {
            "buffer" : 0,
            "byteLength" : 794736,
            "byteOffset" : 0
        },
        {
            "buffer" : 0,
            "byteLength" : 794736,
            "byteOffset" : 794736
        },
        {
            "buffer" : 0,
            "byteLength" : 1059648,
            "byteOffset" : 1589472
        },
        {
            "buffer" : 0,
            "byteLength" : 264912,
            "byteOffset" : 2649120
        }
    ],
    "buffers" : [
        {
            "byteLength" : 2914032,
            "uri" : "data:application/octet-stream;base64,"
        }
    ]
}
